<svg xmlns="http://www.w3.org/2000/svg" width="556.786" height="687.21" viewBox="0 0 556.786 687.21"><g transform="translate(-171.155 -1275.18)"><g transform="translate(2430.192 1008.211)"><path d="M358.589,790.072c-.594,5.589-11.832,86.189-14.155,105.722s-17.418,70.484-21.73,77.529c4.5,2.721,17.859,9.893,17.859,9.893s40.7-60.523,42.358-66.287,8.737-33.623,8.737-33.623l-9.732-98.629Z" transform="translate(-2453.202 -70.249)" fill="#ddd"/><path d="M362.884,581.84c-2.738-3.721-8.949-19.743-8.949-22.9s18.886-66.592,20.043-71.986,1.156-20.647,0-25.669c.506-1.87,1.837-2.478,2.187-1.329.914.714,6.114,3.723,6.114,3.723s12.17,16.189,9.453,19.831a59.109,59.109,0,0,0-5.821,9.22c-.654,4.08-10.254,56.644-9.751,60.012s10.153,20.366,10.4,21.58C384.452,575.336,364.11,583.1,362.884,581.84Z" transform="translate(-2462.624 35.8)" fill="#121212"/><path d="M365.317,515.77c4.476-15.545,8.769-30.337,9.3-32.821,1.156-5.394,1.156-20.647,0-25.669.506-1.87,1.837-2.478,2.187-1.329" transform="translate(-2466.058 37.104)" fill="none" stroke="#ddd" stroke-linecap="round" stroke-linejoin="round" stroke-width="3"/><path d="M358.884,614.822c-2.738-3.721-8.949-19.743-8.949-22.9,0-1.2,2.709-11.043,6.139-23.1" transform="translate(-2461.417 0.122)" fill="none" stroke="#ddd" stroke-linecap="round" stroke-linejoin="round" stroke-width="3"/><path d="M0,0,341.291,2.872l2.563,295.2L2.563,295.2Z" transform="translate(-2121.777 364.867) rotate(-14.418)" fill="#3b92bd" stroke="#121212" stroke-width="20"/><path d="M0,0,89.054.75l2.563,295.2L2.563,295.2Z" transform="translate(-2121.777 364.867) rotate(-14.418)" fill="#121212"/><ellipse cx="27.646" cy="26.684" rx="27.646" ry="26.684" transform="translate(-2095.195 368.793)" fill="#4cb390"/><path d="M0,0,66.931.563,66.985,6.8.054,6.233Z" transform="translate(-2088.971 443.747) rotate(-14.418)" fill="#3b92bd"/><path d="M0,0,66.931.563,66.985,6.8.054,6.233Z" transform="translate(-2085.105 458.259) rotate(-14.418)" fill="#3b92bd"/><ellipse cx="7.678" cy="7.411" rx="7.678" ry="7.411" transform="translate(-1952.375 453.771)" fill="#121212"/><path d="M0,0,126.865,1.068l.054,6.233L.054,6.233Z" transform="translate(-1927.488 453.701) rotate(-14.418)" fill="#121212"/><path d="M0,0,153.175,1.289l.847,97.567L.847,97.567Z" transform="translate(-1980.96 355.164) rotate(-14.418)" fill="#121212"/><ellipse cx="7.678" cy="7.411" rx="7.678" ry="7.411" transform="translate(-1916.849 587.139)" fill="#121212"/><path d="M0,0,126.865,1.068l.054,6.233L.054,6.233Z" transform="translate(-1891.963 587.069) rotate(-14.418)" fill="#121212"/><path d="M0,0,153.175,1.289l.847,97.567L.847,97.567Z" transform="translate(-1945.435 488.532) rotate(-14.418)" fill="#121212"/><path d="M311.124,1072.306,304.247,1084l-8.608,6.406,23.53,26.4h19.312L325.9,1098.071l2.122-16.485" transform="translate(-2445.038 -164.014)" fill="#121212"/><path d="M444.414,1099.947l3.382,11.823-2.384,14.044h51.956l-30.5-17.377.743-8.49" transform="translate(-2489.92 -173.025)" fill="#121212"/><path d="M342.171,869.595c-1.22,9.158-2.21,16.758-2.738,21.2-2.323,19.534-17.418,70.484-21.73,77.529,4.5,2.722,17.859,9.893,17.859,9.893s40.7-60.523,42.358-66.287,8.737-33.623,8.737-33.623l-9.733-98.63-23.336,5.4c-.3,2.795-3.256,24.342-6.429,47.632" transform="translate(-2451.694 -68.618)" fill="none" stroke="#ddd" stroke-linecap="round" stroke-linejoin="round" stroke-width="3"/><line x2="34.436" transform="translate(-2054.228 918.773)" fill="none" stroke="#ddd" stroke-linecap="round" stroke-linejoin="round" stroke-width="3"/><line x2="34.436" transform="translate(-2054.228 924.226)" fill="none" stroke="#ddd" stroke-linecap="round" stroke-linejoin="round" stroke-width="3"/><path d="M496.732,1121.814h6.337l-30.5-17.377.742-8.49" transform="translate(-2498.413 -171.721)" fill="none" stroke="#ddd" stroke-linecap="round" stroke-linejoin="round" stroke-width="3"/><path d="M440.414,1095.947l3.382,11.823-2.384,14.044h30.473" transform="translate(-2488.713 -171.721)" fill="none" stroke="#ddd" stroke-linecap="round" stroke-linejoin="round" stroke-width="3"/><line x2="24.327" y2="13.357" transform="translate(-2138.412 897.439)" fill="none" stroke="#ddd" stroke-linecap="round" stroke-linejoin="round" stroke-width="3"/><line x2="24.327" y2="13.357" transform="translate(-2140.825 903.334)" fill="none" stroke="#ddd" stroke-linecap="round" stroke-linejoin="round" stroke-width="3"/><path d="M336.642,1101.038l-1.665-2.479,2.122-16.485" transform="translate(-2456.906 -167.199)" fill="none" stroke="#ddd" stroke-linecap="round" stroke-linejoin="round" stroke-width="3"/><path d="M302.5,1079.984l-2.248,3.823-8.608,6.405,23.53,26.4h19.312l-4.987-7.426" transform="translate(-2443.832 -166.517)" fill="none" stroke="#ddd" stroke-linecap="round" stroke-linejoin="round" stroke-width="3"/><path d="M388.833,796.03c0,3.4,2.9,43.432,12.846,75.145,6.568,30.294,25.631,122.287,25.631,122.287h24.232l-8.723-205.5Z" transform="translate(-2473.153 -71.318)" fill="#ddd"/><path d="M410.1,929.772c6.345,30.381,12.211,58.689,12.211,58.689h24.232l-8.723-205.5-53.985,8.072c0,3.4,2.9,43.432,12.846,75.145,1.492,6.882,3.629,16.949,6.041,28.4" transform="translate(-2471.644 -69.688)" fill="none" stroke="#ddd" stroke-linecap="round" stroke-linejoin="round" stroke-width="3"/><path d="M503.666,658.372c5.6,2.863,23.364,10.62,25.506,10.62s32.8-9.774,34.445-12.761,3.3-10.941,6.1-11.736,1.226,6.2,1.226,6.2c1.659-.526,27.9-7.124,27.78-6.992.677,3.628-13.5,13.907-14.982,14.273-7.3,7.9-52.738,32.476-54.716,32.486s-32.672-8.07-34.607-8.776C494.8,678.953,501.007,660.322,503.666,658.372Z" transform="translate(-2505.004 -24.293)" fill="#121212"/><path d="M399.272,495.9c1.749-2.264,3.694-4.707,3.6-8.218" transform="translate(-2476.302 26.569)" fill="none" stroke="#1b3c87" stroke-linecap="round" stroke-linejoin="round" stroke-width="3"/><path d="M391.668,586.046c-1.415-4.1-9.686-17.418-9.9-20.908-.207-3.35,8.042-50.468,9.538-57.732" transform="translate(-2471.02 20.14)" fill="none" stroke="#ddd" stroke-linecap="round" stroke-linejoin="round" stroke-width="3"/><path d="M389.508,673.91c-9.654,4.02-31.43-29.464-26.69-34.8,6.621-7.344,25.265-13,31.657-10.622C397.7,632.745,405.937,667.071,389.508,673.91Z" transform="translate(-2465.103 -19.153)" fill="#121212"/><path d="M385.508,669.91c-9.654,4.02-31.43-29.464-26.69-34.8,6.621-7.345,25.265-13,31.657-10.622C393.7,628.745,401.937,663.071,385.508,669.91Z" transform="translate(-2463.897 -17.849)" fill="none" stroke="#ddd" stroke-linecap="round" stroke-linejoin="round" stroke-width="3"/><path d="M526.817,685.21a64.906,64.906,0,0,0,8.842,1.609c3.626,0,46.146-23.7,54.717-32.292,8.24-4.613,13.43-9.772,15.327-13.742" transform="translate(-2514.779 -23.341)" fill="none" stroke="#ddd" stroke-linecap="round" stroke-linejoin="round" stroke-width="3"/><path d="M491.933,697.248c1.509.553,5.011,1.551,9.213,2.658" transform="translate(-2504.255 -41.747)" fill="none" stroke="#ddd" stroke-linecap="round" stroke-linejoin="round" stroke-width="3"/><path d="M567.27,659.559c7.6-2.679,14.759-5.574,15.532-6.975,1.648-2.987,3.3-10.94,6.1-11.736s1.226,6.2,1.226,6.2" transform="translate(-2526.982 -23.341)" fill="none" stroke="#ddd" stroke-linecap="round" stroke-linejoin="round" stroke-width="3"/><path d="M503.662,661.466c5.6,2.863,23.364,10.62,25.506,10.62a25.52,25.52,0,0,0,3.838-.923" transform="translate(-2507.793 -30.083)" fill="none" stroke="#ddd" stroke-linecap="round" stroke-linejoin="round" stroke-width="3"/><path d="M411.015,636.66c32.184,0,34.659,61.648,25.747,109.436-8.665,3.346-57.683,4.779-65.853-2.867C367.938,732.716,357.376,636.664,411.015,636.66Z" transform="translate(-2466.888 -21.996)" fill="#121212"/><path d="M368.066,675.457c4.555-22.766,15.662-42.8,40.155-42.8,22.041,0,30.149,28.913,30.207,62.488" transform="translate(-2466.887 -20.692)" fill="none" stroke="#ddd" stroke-linecap="round" stroke-linejoin="round" stroke-width="3"/><path d="M368.818,775.5a8.419,8.419,0,0,1-1.909-1.287c-1.03-3.647-2.975-17.589-2.835-34.244" transform="translate(-2465.68 -55.673)" fill="none" stroke="#ddd" stroke-linecap="round" stroke-linejoin="round" stroke-width="3"/><path d="M449.368,757.441c-.767,8.6-1.957,17.168-3.48,25.333-4.858,1.876-22.4,3.15-38.309,2.561" transform="translate(-2478.808 -61.37)" fill="none" stroke="#ddd" stroke-linecap="round" stroke-linejoin="round" stroke-width="3"/><path d="M437.093,653.556c3.012-10.5,47.326-5.726,48.811,1.682,1.98,10.275-5.694,29.151-12.131,32.735C467.832,687.734,431.968,671.433,437.093,653.556Z" transform="translate(-2487.56 -25.52)" fill="#121212"/><path d="M487.061,650.944c1.459.847,2.377,1.767,2.571,2.73,1.98,10.275-5.694,29.151-12.131,32.735-1.9-.076-13.608-5.091-19.293-7.968" transform="translate(-2494.081 -26.652)" fill="none" stroke="#ddd" stroke-linecap="round" stroke-linejoin="round" stroke-width="3"/><path d="M432.622,653.94a12.766,12.766,0,0,1,.471-4.384c1.9-6.617,20.179-7.169,33.825-4.822" transform="translate(-2486.354 -24.216)" fill="none" stroke="#ddd" stroke-linecap="round" stroke-linejoin="round" stroke-width="3"/><path d="M425.187,635.06c0,2.74-18.019,3.091-18.019,0V610.391h18.019Z" transform="translate(-2478.683 -13.432)" fill="#121212"/><path d="M428.971,631.218v7.936" transform="translate(-2485.261 -20.222)" fill="none"/><path d="M413.776,633.2c-4.969.241-10.608-.411-10.608-2.14V606.391h18.019v11.076" transform="translate(-2477.477 -12.128)" fill="none" stroke="#ddd" stroke-linecap="round" stroke-linejoin="round" stroke-width="3"/><ellipse cx="18.424" cy="23.384" rx="18.424" ry="23.384" transform="translate(-2076.757 555.57)" fill="#121212"/><path d="M427.072,586.127a16.283,16.283,0,0,1-11.986,5.625c-10.175,0-18.424-10.47-18.424-23.385s8.249-23.384,18.424-23.384,18.423,10.469,18.423,23.384a28.108,28.108,0,0,1-2.714,12.224" transform="translate(-2475.514 7.89)" fill="none" stroke="#ddd" stroke-linecap="round" stroke-linejoin="round" stroke-width="3"/><path d="M395.1,567.732c0-18.625,6.407-36.449,12.856-36.449s2.9,8.836,2.9,8.836c2.683-5.179,10.969-13.177,14.6-13.177s4.5,5.408.789,10.892a18.649,18.649,0,0,1,12.705-5.865c4.183,0,4.735,4.8,4.735,9.521,0,8.354-18.151,21.175-20.2,23.383-.158,2.743-2.526,25.06-8.286,25.06S395.1,588.567,395.1,567.732Z" transform="translate(-2475.042 13.772)" fill="#ddd"/><path d="M420.749,606.987c-1.233,3.641-2.827,6.344-4.832,6.344-3.241,0-9.193-.432-13.782-4.519" transform="translate(-2477.165 -12.323)" fill="none" stroke="#ddd" stroke-linecap="round" stroke-linejoin="round" stroke-width="3"/><ellipse cx="5.86" cy="5.656" rx="5.86" ry="5.656" transform="translate(-2056.589 575.877)" fill="#121212"/><path d="M38.572,0H0L19.286,32.241Z" transform="translate(-1750.816 324.854) rotate(41)" fill="none" stroke="rgba(71,225,174,0.32)" stroke-linecap="round" stroke-linejoin="round" stroke-width="3"/><path d="M.513.26,16.77,0l-.513,31.59L0,31.851Z" transform="matrix(0.841, 0.542, -0.542, 0.841, -2082.003, 314.318)" fill="none" stroke="rgba(131,144,151,0.34)" stroke-linecap="round" stroke-width="3"/><ellipse cx="16.175" cy="15.611" rx="16.175" ry="15.611" transform="translate(-1925.346 677.461)" fill="none" stroke="#121212" stroke-linecap="round" stroke-linejoin="round" stroke-width="1"/><path d="M951.129,635.145l-2.941,58.3,53.783-26.692Z" transform="translate(-2781.835 -14.045)" fill="none" stroke="#121212" stroke-width="1"/></g><g transform="translate(452.733 1960.545)" opacity="0.09"><path d="M574.744,994.331H750.138" transform="translate(-574.744 -994.331)" fill="none" stroke="#ddd" stroke-linecap="round" stroke-linejoin="round" stroke-width="3.69"/></g><path d="M207.233,994.331H338.415" transform="translate(-34.233 966.214)" fill="none" stroke="#ddd" stroke-linecap="round" stroke-linejoin="round" stroke-width="3.69" opacity="0.09"/></g></svg>