<svg xmlns="http://www.w3.org/2000/svg" width="237.412" height="246.898" viewBox="0 0 237.412 246.898"><g transform="translate(-6167 592.866)"><g transform="translate(6167 -592.866)"><g transform="translate(0 0)"><path d="M458.5,371.462c19.26,12.364,28.021,41.068,30.32,68.778s-1.8,54.426-11.743,83.5-25.66,60.577-50.387,71.325c-24.79,10.811-58.589.87-84-15.532-25.349-16.4-42.373-39.328-58.278-64.18s-30.754-51.692-32.246-81.887c-1.553-30.195,10.251-63.808,33.675-75.426,23.485-11.618,58.589-1.18,91.083,1.988S439.241,359.1,458.5,371.462Z" transform="translate(-252.032 -352.688)" fill="#4cb390"/></g><rect width="106.477" height="189.73" transform="translate(74.839 26.423)" fill="rgba(0,0,0,0.81)"/><rect width="85.253" height="33.01" transform="translate(85.451 109.493)" fill="#121212"/><line x2="38.966" transform="translate(120.162 119.007)" fill="none"/><line x2="15.831" transform="translate(120.162 129.225)" fill="none"/><rect width="85.253" height="33.01" transform="translate(85.451 61.03)" fill="#121212"/><rect width="106.477" height="19.54" transform="translate(74.839 26.423)" fill="#4cb390"/><rect width="106.477" height="19.54" transform="translate(74.839 196.613)" fill="#4cb390"/><line x2="15.831" transform="translate(120.162 36.193)" fill="none"/><circle cx="4.693" cy="4.693" r="4.693" transform="translate(123.385 201.69)" fill="#121212"/><line x2="7.381" transform="translate(151.746 70.543)" fill="none"/><line x2="24.203" transform="translate(120.162 70.543)" fill="none"/><line x2="15.831" transform="translate(120.162 80.761)" fill="none"/></g><path d="M31.113,15.838A15.275,15.275,0,1,0,13.451,30.929V20.254H9.571V15.838h3.88V12.472c0-3.828,2.279-5.943,5.77-5.943a23.509,23.509,0,0,1,3.42.3v3.757H20.714a2.208,2.208,0,0,0-2.489,2.386v2.867h4.236l-.678,4.416H18.225V30.929A15.281,15.281,0,0,0,31.113,15.838Z" transform="translate(6203.23 -558.505)" fill="#121212"/><path d="M24.512,8.911c.017.243.017.485.017.728A15.822,15.822,0,0,1,8.6,25.57,15.823,15.823,0,0,1,0,23.056a11.583,11.583,0,0,0,1.352.069A11.214,11.214,0,0,0,8.3,20.733,5.609,5.609,0,0,1,3.068,16.85a7.061,7.061,0,0,0,1.057.087A5.922,5.922,0,0,0,5.6,16.746a5.6,5.6,0,0,1-4.49-5.5v-.069a5.639,5.639,0,0,0,2.531.711A5.608,5.608,0,0,1,1.907,4.4a15.915,15.915,0,0,0,11.545,5.859,6.321,6.321,0,0,1-.139-1.283A5.6,5.6,0,0,1,23,5.149,11.024,11.024,0,0,0,26.557,3.8,5.584,5.584,0,0,1,24.1,6.882a11.225,11.225,0,0,0,3.224-.867,12.036,12.036,0,0,1-2.808,2.895Z" transform="translate(6205.544 -495.264)" fill="#121212"/><path d="M11.6,7.889a5.947,5.947,0,1,0,5.947,5.947A5.938,5.938,0,0,0,11.6,7.889Zm0,9.814a3.866,3.866,0,1,1,3.866-3.866A3.873,3.873,0,0,1,11.6,17.7ZM19.176,7.645a1.387,1.387,0,1,1-1.387-1.387A1.384,1.384,0,0,1,19.176,7.645Zm3.939,1.408a6.865,6.865,0,0,0-1.874-4.86,6.91,6.91,0,0,0-4.86-1.874c-1.915-.109-7.655-.109-9.57,0A6.9,6.9,0,0,0,1.95,4.188,6.887,6.887,0,0,0,.076,9.048c-.109,1.915-.109,7.655,0,9.57a6.865,6.865,0,0,0,1.874,4.86,6.919,6.919,0,0,0,4.86,1.874c1.915.109,7.655.109,9.57,0a6.865,6.865,0,0,0,4.86-1.874,6.91,6.91,0,0,0,1.874-4.86c.109-1.915.109-7.65,0-9.565ZM20.64,20.673a3.914,3.914,0,0,1-2.2,2.2c-1.527.606-5.15.466-6.837.466s-5.316.135-6.837-.466a3.914,3.914,0,0,1-2.2-2.2c-.606-1.527-.466-5.15-.466-6.837S1.955,8.52,2.556,7a3.914,3.914,0,0,1,2.2-2.2c1.527-.606,5.15-.466,6.837-.466s5.316-.135,6.837.466A3.914,3.914,0,0,1,20.64,7c.606,1.527.466,5.15.466,6.837S21.246,19.151,20.64,20.673Z" transform="translate(6358.881 -453.745)" fill="#121212"/><path d="M4.877,21.786H.36V7.241H4.877ZM2.616,5.257A2.628,2.628,0,1,1,5.232,2.616,2.638,2.638,0,0,1,2.616,5.257Zm19.166,16.53H17.275V14.706c0-1.688-.034-3.852-2.348-3.852-2.348,0-2.708,1.833-2.708,3.73v7.2H7.706V7.241h4.332V9.225H12.1a4.746,4.746,0,0,1,4.274-2.349c4.571,0,5.412,3.01,5.412,6.92v7.99Z" transform="translate(6373.45 -527.741) rotate(30)" fill="#121212"/></g></svg>